<svg xmlns="http://www.w3.org/2000/svg" version="1.1" xmlns:xlink="http://www.w3.org/1999/xlink" xmlns:svgjs="http://svgjs.dev/svgjs" width="1500" height="1500" viewBox="0 0 1500 1500"><rect width="1500" height="1500" fill="#ffffff"></rect><g transform="matrix(0.6666666666666666,0,0,0.6666666666666666,249.39393939393938,654.7039946135267)"><svg viewBox="0 0 396 75" data-background-color="#ffffff" preserveAspectRatio="xMidYMid meet" height="284" width="1500" xmlns="http://www.w3.org/2000/svg" xmlns:xlink="http://www.w3.org/1999/xlink"><g id="tight-bounds" transform="matrix(1,0,0,1,0.2400000000000091,0.2492979083741318)"><svg viewBox="0 0 395.52 74.50140418325174" height="74.50140418325174" width="395.52"><g><svg viewBox="0 0 395.52 74.50140418325174" height="74.50140418325174" width="395.52"><g><svg viewBox="0 0 395.52 74.50140418325174" height="74.50140418325174" width="395.52"><g id="textblocktransform"><svg viewBox="0 0 395.52 74.50140418325174" height="74.50140418325174" width="395.52" id="textblock"><g><rect width="106.79039999999999" height="4.539672330496296" y="66.09261909189117" fill="#000000" data-fill-palette-color="tertiary"></rect><rect width="106.79039999999999" height="4.539672330496296" y="66.09261909189117" x="288.7296" fill="#000000" data-fill-palette-color="tertiary"></rect></g><g><svg viewBox="0 0 395.52 50.339547350670095" height="50.339547350670095" width="395.52"><g transform="matrix(1,0,0,1,0,0)"><svg width="395.52" viewBox="4.22 -34.55 275.05999999999995 35.01" height="50.339547350670095" data-palette-color="#000000"><path d="M32.5-19.34L32.5-19.34Q32.54-18.75 32.54-18.16L32.54-18.16 32.54 0 22.07 0 22.07-23.68Q21.8-23.8 21.44-23.8L21.44-23.8 20.65-23.8Q18.75-23.8 16.21-21.19L16.21-21.19Q15.43-20.39 14.72-19.41L14.72-19.41 14.72 0 4.22 0 4.22-26.07 14.72-26.07 14.72-22.14Q18.85-26.51 23.95-26.51L23.95-26.51Q30.54-26.51 32.08-21.63L32.08-21.63Q34.18-24.05 36.71-25.28 39.23-26.51 41.8-26.51L41.8-26.51Q46.17-26.51 48.27-24.44 50.37-22.36 50.37-18.16L50.37-18.16 50.37 0 39.89 0 39.89-23.71Q39.67-23.8 38.79-23.8 37.92-23.8 37.17-23.47 36.43-23.14 35.64-22.56L35.64-22.56Q33.94-21.31 32.5-19.34ZM76.41 0L76.41-23.41Q75.8-23.8 75.1-23.8 74.39-23.8 73.63-23.47 72.87-23.14 72.04-22.56L72.04-22.56Q70.31-21.31 68.85-19.24L68.85-19.24 68.85 0 58.35 0 58.35-26.07 68.85-26.07 68.85-21.9Q73.02-26.51 78.29-26.51L78.29-26.51Q86.91-26.51 86.91-18.16L86.91-18.16 86.91 0 76.41 0ZM113.37 0L113.37-1.34Q110.32 0.46 106.92 0.46 103.51 0.46 100.93-0.55 98.36-1.56 96.53-3.37L96.53-3.37Q92.72-7.15 92.72-13.21L92.72-13.21Q92.72-18.82 96.48-22.56L96.48-22.56Q100.48-26.51 106.93-26.51L106.93-26.51Q110.35-26.51 113.37-25.02L113.37-25.02 113.37-34.55 123.43-34.55 123.43 0 113.37 0ZM106.44-24.73L106.44-24.73Q105.68-24.73 105-24.63L105-24.63 105-1.49Q105.88-1.34 106.9-1.34L106.9-1.34Q110.3-1.34 113.37-3.49L113.37-3.49 113.37-22.85Q110.08-24.73 106.44-24.73ZM131.41 0L131.41-34.55 141.91-34.55 141.91 0 131.41 0ZM147.99-3.27L147.99-3.27Q147.99-3.64 148.24-3.94 148.5-4.25 148.92-4.25 149.33-4.25 149.6-4L149.6-4Q149.6-4 150.21-3.44L150.21-3.44Q152.75-1.22 157.31-1.22L157.31-1.22Q160.39-1.22 161.27-2.49L161.27-2.49Q161.51-2.83 161.51-3.19 161.51-3.54 161.38-3.87 161.24-4.2 160.81-4.68 160.37-5.15 159.56-5.81L159.56-5.81 157.41-7.54Q152.09-11.69 150.11-14.28L150.11-14.28Q148.31-16.65 148.31-19.12L148.31-19.12Q148.31-22.22 151.16-24.32L151.16-24.32Q154.12-26.51 158.8-26.51L158.8-26.51Q162.1-26.51 164-25.76 165.91-25 166.69-24.38 167.47-23.75 167.47-23.24L167.47-23.24Q167.47-22.19 166.64-22.19L166.64-22.19Q166.25-22.19 165.92-22.47 165.59-22.75 164.61-23.43 163.64-24.1 162.03-24.49 160.41-24.88 159.02-24.88 157.63-24.88 157.06-24.44 156.48-24 156.48-23.57 156.48-23.14 156.66-22.77 156.83-22.39 157.29-21.88L157.29-21.88Q158.36-20.61 160.73-18.87 163.1-17.14 164.74-15.7 166.37-14.26 167.3-13.04L167.3-13.04Q168.98-10.84 168.98-8.59 168.98-6.35 168.15-4.75 167.32-3.15 165.79-2L165.79-2Q162.54 0.46 157.12 0.46L157.12 0.46Q152.77 0.46 149.87-1.2L149.87-1.2Q147.99-2.25 147.99-3.27ZM184.9 0.46L184.9 0.46Q175.33 0.46 175.33-8.28L175.33-8.28 175.3-24.29 172.5-24.17Q171.18-24.17 171.18-25.17 171.18-26.17 172.59-26.17L172.59-26.17 174.94-26.07 175.3-26.07 175.3-29.86 185.78-34.55 185.78-26.07 189.05-26.07 191.37-26.17Q192.81-26.17 192.81-25.15L192.81-25.15Q192.81-24.68 192.41-24.43 192-24.17 191.49-24.17L191.49-24.17 188.46-24.29 185.78-24.29 185.78-1.34Q188.63-1.39 190.54-2.98L190.54-2.98Q191.44-3.66 191.82-4.74 192.2-5.81 192.5-6.12 192.81-6.42 193.22-6.42L193.22-6.42Q193.64-6.42 193.93-6.09 194.23-5.76 194.23-5.31 194.23-4.86 193.98-4.31 193.74-3.76 193.25-3.15L193.25-3.15Q192.15-1.78 190.71-0.98L190.71-0.98Q188.1 0.46 184.9 0.46ZM196.13-13.18L196.13-13.18Q196.13-16.11 197.19-18.52 198.25-20.92 200.11-22.71L200.11-22.71Q204.11-26.51 210.17-26.51L210.17-26.51Q216.34-26.51 220.22-22.56L220.22-22.56Q223.94-18.82 223.94-13.11L223.94-13.11Q223.94-7.37 220.13-3.52L220.13-3.52Q216.2 0.46 210.07 0.46L210.07 0.46Q204.09 0.46 200.16-3.32L200.16-3.32Q196.13-7.23 196.13-13.18ZM209.38-24.71L209.38-1.37Q209.58-1.34 209.78-1.34L209.78-1.34 210.12-1.34Q215.05-1.34 218.39-4.39L218.39-4.39Q221.96-7.69 221.96-13.04L221.96-13.04Q221.96-18.26 218.61-21.51L218.61-21.51Q215.32-24.73 210.09-24.73L210.09-24.73 209.73-24.73Q209.56-24.73 209.38-24.71L209.38-24.71ZM230.18 0L230.18-26.07 240.68-26.07 240.68-18.41Q242.37-22.58 244.31-24.55 246.25-26.51 248.2-26.51L248.2-26.51Q249.3-26.51 249.95-25.94 250.59-25.37 250.59-24.66 250.59-23.95 250.4-23.54 250.2-23.12 249.88-22.83L249.88-22.83Q249.23-22.22 248.64-22.22L248.64-22.22Q247.71-22.22 247.27-22.41L247.27-22.41Q246.52-22.75 245.93-22.75 245.34-22.75 244.44-21.81 243.54-20.87 242.71-19.21L242.71-19.21Q240.68-15.16 240.68-10.42L240.68-10.42 240.68 0 230.18 0ZM276.4-5.93L276.4-5.93Q277.35-5.93 277.35-5.05L277.35-5.05Q277.35-4.39 276.49-3.49L276.49-3.49Q272.64 0.46 265.92 0.46L265.92 0.46Q259.89 0.46 255.77-3.17L255.77-3.17Q251.49-6.96 251.49-12.74L251.49-12.74Q251.49-18.65 255.35-22.46L255.35-22.46Q259.43-26.51 266.19-26.51L266.19-26.51Q271.61-26.51 275.3-23.22L275.3-23.22Q279.28-19.68 279.28-13.92L279.28-13.92Q279.28-13.09 279.23-12.16L279.23-12.16 263.11-12.16 263.11-1.68Q264.77-1.34 266.85-1.34L266.85-1.34Q271.24-1.34 274.35-4.25L274.35-4.25Q274.98-4.88 275.25-5.25L275.25-5.25Q275.81-5.93 276.4-5.93ZM269.88-13.94L269.88-24.27Q268.29-24.73 266.29-24.73 264.29-24.73 263.11-24.46L263.11-24.46 263.11-13.94 269.88-13.94Z" opacity="1" transform="matrix(1,0,0,1,0,0)" fill="#000000" class="wordmark-text-0" data-fill-palette-color="primary" id="text-0"></path></svg></g></svg></g><g transform="matrix(1,0,0,1,106.79039999999999,62.22350633102689)"><svg viewBox="0 0 181.9392 12.277897852224848" height="12.277897852224848" width="181.9392"><g transform="matrix(1,0,0,1,8,0)"><svg width="165.9392" viewBox="4.7 -35.5 486.5 36.00192307692308" height="12.277897852224848" data-palette-color="#000000"><path d="M6.9-2.95L24.05-2.95Q24.65-2.95 25.1-2.53 25.55-2.1 25.55-1.5L25.55-1.5Q25.55-0.85 25.1-0.43 24.65 0 24.05 0L24.05 0 6.2 0Q5.55 0 5.13-0.45 4.7-0.9 4.7-1.5L4.7-1.5 4.7-33.5Q4.7-34.1 5.15-34.55 5.6-35 6.3-35L6.3-35Q6.9-35 7.38-34.55 7.85-34.1 7.85-33.5L7.85-33.5 7.85-2.1 6.9-2.95ZM54.15-12.8L54.15-12.8Q54.15-9 52.47-5.98 50.8-2.95 47.95-1.23 45.1 0.5 41.5 0.5L41.5 0.5Q37.95 0.5 35.07-1.23 32.2-2.95 30.52-5.98 28.85-9 28.85-12.8L28.85-12.8Q28.85-16.65 30.52-19.65 32.2-22.65 35.07-24.4 37.95-26.15 41.5-26.15L41.5-26.15Q45.1-26.15 47.95-24.4 50.8-22.65 52.47-19.65 54.15-16.65 54.15-12.8ZM51.15-12.8L51.15-12.8Q51.15-15.85 49.9-18.23 48.65-20.6 46.47-21.98 44.3-23.35 41.5-23.35L41.5-23.35Q38.75-23.35 36.57-21.98 34.4-20.6 33.12-18.23 31.85-15.85 31.85-12.8L31.85-12.8Q31.85-9.75 33.12-7.4 34.4-5.05 36.57-3.68 38.75-2.3 41.5-2.3L41.5-2.3Q44.3-2.3 46.47-3.68 48.65-5.05 49.9-7.4 51.15-9.75 51.15-12.8ZM59.45-26.1L59.45-26.1Q59.84-26.1 60.24-25.85 60.64-25.6 60.84-25.1L60.84-25.1 69.59-4.3 68.94-3.9 77.89-25.1Q78.3-26.1 79.34-26.05L79.34-26.05Q79.84-26.05 80.3-25.73 80.75-25.4 80.75-24.8L80.75-24.8Q80.75-24.5 80.67-24.33 80.59-24.15 80.55-23.95L80.55-23.95 70.75-0.95Q70.34-0.05 69.39 0L69.39 0Q68.94 0.05 68.52-0.23 68.09-0.5 67.89-0.95L67.89-0.95 58.05-23.95Q57.99-24.05 57.95-24.25 57.89-24.45 57.89-24.65L57.89-24.65Q57.89-25.2 58.3-25.65 58.7-26.1 59.45-26.1ZM97.59 0.5L97.59 0.5Q93.74 0.5 90.79-1.15 87.84-2.8 86.19-5.75 84.54-8.7 84.54-12.65L84.54-12.65Q84.54-16.9 86.22-19.9 87.89-22.9 90.57-24.53 93.24-26.15 96.24-26.15L96.24-26.15Q98.44-26.15 100.52-25.38 102.59-24.6 104.19-23.08 105.79-21.55 106.79-19.35 107.79-17.15 107.84-14.25L107.84-14.25Q107.84-13.65 107.39-13.23 106.94-12.8 106.34-12.8L106.34-12.8 86.29-12.8 85.69-15.5 105.39-15.5 104.74-14.9 104.74-15.9Q104.49-18.25 103.19-19.9 101.89-21.55 100.07-22.4 98.24-23.25 96.24-23.25L96.24-23.25Q94.74-23.25 93.17-22.65 91.59-22.05 90.32-20.78 89.04-19.5 88.24-17.53 87.44-15.55 87.44-12.85L87.44-12.85Q87.44-9.9 88.64-7.5 89.84-5.1 92.09-3.7 94.34-2.3 97.54-2.3L97.54-2.3Q99.24-2.3 100.64-2.8 102.04-3.3 103.12-4.13 104.19-4.95 104.89-5.85L104.89-5.85Q105.44-6.3 105.94-6.3L105.94-6.3Q106.49-6.3 106.87-5.9 107.24-5.5 107.24-5L107.24-5Q107.24-4.4 106.74-3.95L106.74-3.95Q105.24-2.15 102.84-0.83 100.44 0.5 97.59 0.5ZM138.09 0.5L138.09 0.5Q134.29 0.55 131.49-0.7 128.69-1.95 126.14-4.45L126.14-4.45Q125.89-4.65 125.71-4.95 125.54-5.25 125.54-5.65L125.54-5.65Q125.54-6.25 126.01-6.75 126.49-7.25 127.09-7.25L127.09-7.25Q127.69-7.25 128.19-6.75L128.19-6.75Q130.14-4.65 132.61-3.55 135.09-2.45 137.94-2.45L137.94-2.45Q140.34-2.45 142.21-3.2 144.09-3.95 145.19-5.35 146.29-6.75 146.29-8.6L146.29-8.6Q146.29-10.9 145.04-12.33 143.79-13.75 141.74-14.68 139.69-15.6 137.19-16.35L137.19-16.35Q135.14-16.95 133.29-17.73 131.44-18.5 129.99-19.63 128.54-20.75 127.74-22.4 126.94-24.05 126.94-26.4L126.94-26.4Q126.94-29.05 128.34-31.1 129.74-33.15 132.31-34.33 134.89-35.5 138.29-35.5L138.29-35.5Q141.24-35.5 143.96-34.5 146.69-33.5 148.29-31.55L148.29-31.55Q149.04-30.75 149.04-30.1L149.04-30.1Q149.04-29.6 148.54-29.1 148.04-28.6 147.44-28.6L147.44-28.6Q146.94-28.6 146.59-28.95L146.59-28.95Q145.74-30 144.44-30.83 143.14-31.65 141.56-32.1 139.99-32.55 138.29-32.55L138.29-32.55Q135.94-32.55 134.06-31.83 132.19-31.1 131.11-29.75 130.04-28.4 130.04-26.5L130.04-26.5Q130.04-24.4 131.24-23.05 132.44-21.7 134.39-20.83 136.34-19.95 138.54-19.2L138.54-19.2Q140.69-18.6 142.66-17.82 144.64-17.05 146.16-15.9 147.69-14.75 148.56-13 149.44-11.25 149.44-8.6L149.44-8.6Q149.44-6.05 147.99-4 146.54-1.95 144.01-0.75 141.49 0.45 138.09 0.5ZM154.14-25.45L154.14-25.45 165.78-25.45Q166.39-25.45 166.78-25.03 167.19-24.6 167.19-24L167.19-24Q167.19-23.45 166.78-23.05 166.39-22.65 165.78-22.65L165.78-22.65 154.14-22.65Q153.53-22.65 153.11-23.08 152.69-23.5 152.69-24.05L152.69-24.05Q152.69-24.65 153.11-25.05 153.53-25.45 154.14-25.45ZM159.28-32.5L159.28-32.5Q159.94-32.5 160.36-32.05 160.78-31.6 160.78-31L160.78-31 160.78-5.9Q160.78-4.5 161.16-3.8 161.53-3.1 162.14-2.88 162.74-2.65 163.34-2.65L163.34-2.65Q163.74-2.65 164.06-2.78 164.39-2.9 164.78-2.9L164.78-2.9Q165.24-2.9 165.56-2.55 165.89-2.2 165.89-1.65L165.89-1.65Q165.89-0.95 165.09-0.48 164.28 0 163.19 0L163.19 0Q162.74 0 161.84-0.08 160.94-0.15 159.99-0.63 159.03-1.1 158.41-2.3 157.78-3.5 157.78-5.75L157.78-5.75 157.78-31Q157.78-31.6 158.21-32.05 158.64-32.5 159.28-32.5ZM193.48-25.55L193.48-25.55Q194.13-25.55 194.56-25.1 194.98-24.65 194.98-24L194.98-24 194.98-1.5Q194.98-0.9 194.53-0.45 194.08 0 193.48 0L193.48 0Q192.78 0 192.38-0.45 191.98-0.9 191.98-1.5L191.98-1.5 191.98-7.45 192.83-7.85Q192.83-6.45 192.06-5 191.28-3.55 189.93-2.3 188.58-1.05 186.76-0.28 184.93 0.5 182.78 0.5L182.78 0.5Q179.43 0.5 176.76-1.25 174.08-3 172.56-6.05 171.03-9.1 171.03-12.9L171.03-12.9Q171.03-16.8 172.58-19.78 174.13-22.75 176.78-24.45 179.43-26.15 182.73-26.15L182.73-26.15Q184.88-26.15 186.76-25.4 188.63-24.65 190.03-23.35 191.43-22.05 192.23-20.38 193.03-18.7 193.03-16.9L193.03-16.9 191.98-17.65 191.98-24Q191.98-24.65 192.38-25.1 192.78-25.55 193.48-25.55ZM183.08-2.3L183.08-2.3Q185.73-2.3 187.78-3.68 189.83-5.05 191.01-7.48 192.18-9.9 192.18-12.9L192.18-12.9Q192.18-15.85 191.01-18.2 189.83-20.55 187.78-21.95 185.73-23.35 183.08-23.35L183.08-23.35Q180.48-23.35 178.41-22 176.33-20.65 175.16-18.3 173.98-15.95 173.98-12.9L173.98-12.9Q173.98-9.9 175.13-7.48 176.28-5.05 178.36-3.68 180.43-2.3 183.08-2.3ZM204.33 0L204.33 0Q203.63 0 203.23-0.45 202.83-0.9 202.83-1.5L202.83-1.5 202.83-23.9Q202.83-24.5 203.25-24.95 203.68-25.4 204.33-25.4L204.33-25.4Q204.98-25.4 205.41-24.95 205.83-24.5 205.83-23.9L205.83-23.9 205.83-16.4 205.08-16.25Q205.23-18 205.95-19.73 206.68-21.45 207.93-22.9 209.18-24.35 210.91-25.25 212.63-26.15 214.78-26.15L214.78-26.15Q215.68-26.15 216.53-25.78 217.38-25.4 217.38-24.55L217.38-24.55Q217.38-23.8 216.98-23.4 216.58-23 216.03-23L216.03-23Q215.58-23 215.06-23.25 214.53-23.5 213.68-23.5L213.68-23.5Q212.28-23.5 210.88-22.68 209.48-21.85 208.33-20.45 207.18-19.05 206.5-17.32 205.83-15.6 205.83-13.85L205.83-13.85 205.83-1.5Q205.83-0.9 205.38-0.45 204.93 0 204.33 0ZM220.43-25.45L220.43-25.45 232.08-25.45Q232.68-25.45 233.08-25.03 233.48-24.6 233.48-24L233.48-24Q233.48-23.45 233.08-23.05 232.68-22.65 232.08-22.65L232.08-22.65 220.43-22.65Q219.83-22.65 219.4-23.08 218.98-23.5 218.98-24.05L218.98-24.05Q218.98-24.65 219.4-25.05 219.83-25.45 220.43-25.45ZM225.58-32.5L225.58-32.5Q226.23-32.5 226.65-32.05 227.08-31.6 227.08-31L227.08-31 227.08-5.9Q227.08-4.5 227.45-3.8 227.83-3.1 228.43-2.88 229.03-2.65 229.63-2.65L229.63-2.65Q230.03-2.65 230.35-2.78 230.68-2.9 231.08-2.9L231.08-2.9Q231.53-2.9 231.85-2.55 232.18-2.2 232.18-1.65L232.18-1.65Q232.18-0.95 231.38-0.48 230.58 0 229.48 0L229.48 0Q229.03 0 228.13-0.08 227.23-0.15 226.28-0.63 225.33-1.1 224.7-2.3 224.08-3.5 224.08-5.75L224.08-5.75 224.08-31Q224.08-31.6 224.5-32.05 224.93-32.5 225.58-32.5ZM254.97 0L254.97 0Q254.27 0 253.85-0.45 253.42-0.9 253.42-1.5L253.42-1.5 253.42-33.5Q253.42-34.1 253.87-34.55 254.32-35 254.92-35L254.92-35 273.12-35Q273.77-35 274.2-34.58 274.62-34.15 274.62-33.5L274.62-33.5Q274.62-32.9 274.2-32.48 273.77-32.05 273.12-32.05L273.12-32.05 256.27-32.05 256.47-32.35 256.47-19.05 256.22-19.5 270.87-19.5Q271.52-19.5 271.95-19.07 272.37-18.65 272.37-18.05L272.37-18.05Q272.37-17.4 271.95-17 271.52-16.6 270.87-16.6L270.87-16.6 256.12-16.6 256.47-17 256.47-1.5Q256.47-0.9 256.05-0.45 255.62 0 254.97 0ZM282.02 0L282.02 0Q281.32 0 280.92-0.45 280.52-0.9 280.52-1.5L280.52-1.5 280.52-23.9Q280.52-24.5 280.94-24.95 281.37-25.4 282.02-25.4L282.02-25.4Q282.67-25.4 283.09-24.95 283.52-24.5 283.52-23.9L283.52-23.9 283.52-16.4 282.77-16.25Q282.92-18 283.64-19.73 284.37-21.45 285.62-22.9 286.87-24.35 288.59-25.25 290.32-26.15 292.47-26.15L292.47-26.15Q293.37-26.15 294.22-25.78 295.07-25.4 295.07-24.55L295.07-24.55Q295.07-23.8 294.67-23.4 294.27-23 293.72-23L293.72-23Q293.27-23 292.75-23.25 292.22-23.5 291.37-23.5L291.37-23.5Q289.97-23.5 288.57-22.68 287.17-21.85 286.02-20.45 284.87-19.05 284.19-17.32 283.52-15.6 283.52-13.85L283.52-13.85 283.52-1.5Q283.52-0.9 283.07-0.45 282.62 0 282.02 0ZM322.27-12.8L322.27-12.8Q322.27-9 320.59-5.98 318.92-2.95 316.07-1.23 313.22 0.5 309.62 0.5L309.62 0.5Q306.07 0.5 303.19-1.23 300.32-2.95 298.64-5.98 296.97-9 296.97-12.8L296.97-12.8Q296.97-16.65 298.64-19.65 300.32-22.65 303.19-24.4 306.07-26.15 309.62-26.15L309.62-26.15Q313.22-26.15 316.07-24.4 318.92-22.65 320.59-19.65 322.27-16.65 322.27-12.8ZM319.27-12.8L319.27-12.8Q319.27-15.85 318.02-18.23 316.77-20.6 314.59-21.98 312.42-23.35 309.62-23.35L309.62-23.35Q306.87-23.35 304.69-21.98 302.52-20.6 301.24-18.23 299.97-15.85 299.97-12.8L299.97-12.8Q299.97-9.75 301.24-7.4 302.52-5.05 304.69-3.68 306.87-2.3 309.62-2.3L309.62-2.3Q312.42-2.3 314.59-3.68 316.77-5.05 318.02-7.4 319.27-9.75 319.27-12.8ZM339.91-25.75L339.91-25.75Q343.01-25.75 345.21-24.13 347.41-22.5 348.21-19.3L348.21-19.3 347.51-19.1 347.81-20Q348.46-21.5 349.99-22.83 351.51-24.15 353.46-24.95 355.41-25.75 357.41-25.75L357.41-25.75Q360.56-25.75 362.49-24.4 364.41-23.05 365.29-20.78 366.16-18.5 366.16-15.65L366.16-15.65 366.16-1.5Q366.16-0.9 365.74-0.45 365.31 0 364.66 0L364.66 0Q364.01 0 363.59-0.45 363.16-0.9 363.16-1.5L363.16-1.5 363.16-15.5Q363.16-17.55 362.51-19.25 361.86-20.95 360.46-21.95 359.06-22.95 356.71-22.95L356.71-22.95Q354.66-22.95 352.79-21.95 350.91-20.95 349.74-19.25 348.56-17.55 348.56-15.5L348.56-15.5 348.56-1.5Q348.56-0.9 348.14-0.45 347.71 0 347.06 0L347.06 0Q346.41 0 345.99-0.45 345.56-0.9 345.56-1.5L345.56-1.5 345.56-15.65Q345.56-17.7 344.96-19.35 344.36-21 343.01-21.98 341.66-22.95 339.36-22.95L339.36-22.95Q337.31-22.95 335.49-21.98 333.66-21 332.54-19.35 331.41-17.7 331.41-15.65L331.41-15.65 331.41-1.5Q331.41-0.9 330.96-0.45 330.51 0 329.91 0L329.91 0Q329.21 0 328.81-0.45 328.41-0.9 328.41-1.5L328.41-1.5 328.41-23.9Q328.41-24.5 328.84-24.95 329.26-25.4 329.91-25.4L329.91-25.4Q330.56-25.4 330.99-24.95 331.41-24.5 331.41-23.9L331.41-23.9 331.41-19.25 330.06-17.4Q330.21-18.9 331.04-20.4 331.86-21.9 333.21-23.1 334.56-24.3 336.29-25.03 338.01-25.75 339.91-25.75ZM390.01-35L390.01-35Q390.61-35 391.08-34.55 391.56-34.1 391.56-33.45L391.56-33.45 391.56-1.55Q391.51-0.9 391.03-0.45 390.56 0 389.96 0L389.96 0Q389.26 0 388.83-0.45 388.41-0.9 388.41-1.55L388.41-1.55 388.41-33.45Q388.41-34.1 388.86-34.55 389.31-35 390.01-35ZM413.46-35L413.46-35Q414.16-35 414.58-34.55 415.01-34.1 415.01-33.45L415.01-33.45 415.01-1.55Q414.96-0.9 414.53-0.45 414.11 0 413.41 0L413.41 0Q412.76 0 412.31-0.45 411.86-0.9 411.86-1.55L411.86-1.55 411.86-33.45Q411.86-34.1 412.33-34.55 412.81-35 413.46-35ZM389.56-16.45L389.76-19.35 413.51-19.35 413.46-16.45 389.56-16.45ZM435.01 0.5L435.01 0.5Q431.16 0.5 428.21-1.15 425.26-2.8 423.61-5.75 421.96-8.7 421.96-12.65L421.96-12.65Q421.96-16.9 423.63-19.9 425.31-22.9 427.98-24.53 430.66-26.15 433.66-26.15L433.66-26.15Q435.86-26.15 437.93-25.38 440.01-24.6 441.61-23.08 443.21-21.55 444.21-19.35 445.21-17.15 445.26-14.25L445.26-14.25Q445.26-13.65 444.81-13.23 444.36-12.8 443.76-12.8L443.76-12.8 423.71-12.8 423.11-15.5 442.81-15.5 442.16-14.9 442.16-15.9Q441.91-18.25 440.61-19.9 439.31-21.55 437.48-22.4 435.66-23.25 433.66-23.25L433.66-23.25Q432.16-23.25 430.58-22.65 429.01-22.05 427.73-20.78 426.46-19.5 425.66-17.53 424.86-15.55 424.86-12.85L424.86-12.85Q424.86-9.9 426.06-7.5 427.26-5.1 429.51-3.7 431.76-2.3 434.96-2.3L434.96-2.3Q436.66-2.3 438.06-2.8 439.46-3.3 440.53-4.13 441.61-4.95 442.31-5.85L442.31-5.85Q442.86-6.3 443.36-6.3L443.36-6.3Q443.91-6.3 444.28-5.9 444.66-5.5 444.66-5L444.66-5Q444.66-4.4 444.16-3.95L444.16-3.95Q442.66-2.15 440.26-0.83 437.86 0.5 435.01 0.5ZM452.95 0L452.95 0Q452.25 0 451.86-0.45 451.45-0.9 451.45-1.5L451.45-1.5 451.45-23.9Q451.45-24.5 451.88-24.95 452.31-25.4 452.95-25.4L452.95-25.4Q453.61-25.4 454.03-24.95 454.45-24.5 454.45-23.9L454.45-23.9 454.45-16.4 453.7-16.25Q453.86-18 454.58-19.73 455.31-21.45 456.56-22.9 457.81-24.35 459.53-25.25 461.25-26.15 463.4-26.15L463.4-26.15Q464.31-26.15 465.15-25.78 466-25.4 466-24.55L466-24.55Q466-23.8 465.61-23.4 465.2-23 464.65-23L464.65-23Q464.2-23 463.68-23.25 463.15-23.5 462.31-23.5L462.31-23.5Q460.9-23.5 459.5-22.68 458.11-21.85 456.95-20.45 455.81-19.05 455.13-17.32 454.45-15.6 454.45-13.85L454.45-13.85 454.45-1.5Q454.45-0.9 454-0.45 453.56 0 452.95 0ZM480.95 0.5L480.95 0.5Q477.1 0.5 474.15-1.15 471.2-2.8 469.55-5.75 467.9-8.7 467.9-12.65L467.9-12.65Q467.9-16.9 469.58-19.9 471.25-22.9 473.93-24.53 476.6-26.15 479.6-26.15L479.6-26.15Q481.8-26.15 483.88-25.38 485.95-24.6 487.55-23.08 489.15-21.55 490.15-19.35 491.15-17.15 491.2-14.25L491.2-14.25Q491.2-13.65 490.75-13.23 490.3-12.8 489.7-12.8L489.7-12.8 469.65-12.8 469.05-15.5 488.75-15.5 488.1-14.9 488.1-15.9Q487.85-18.25 486.55-19.9 485.25-21.55 483.43-22.4 481.6-23.25 479.6-23.25L479.6-23.25Q478.1-23.25 476.53-22.65 474.95-22.05 473.68-20.78 472.4-19.5 471.6-17.53 470.8-15.55 470.8-12.85L470.8-12.85Q470.8-9.9 472-7.5 473.2-5.1 475.45-3.7 477.7-2.3 480.9-2.3L480.9-2.3Q482.6-2.3 484-2.8 485.4-3.3 486.48-4.13 487.55-4.95 488.25-5.85L488.25-5.85Q488.8-6.3 489.3-6.3L489.3-6.3Q489.85-6.3 490.23-5.9 490.6-5.5 490.6-5L490.6-5Q490.6-4.4 490.1-3.95L490.1-3.95Q488.6-2.15 486.2-0.83 483.8 0.5 480.95 0.5Z" opacity="1" transform="matrix(1,0,0,1,0,0)" fill="#000000" class="slogan-text-1" data-fill-palette-color="secondary" id="text-1"></path></svg></g></svg></g></svg></g></svg></g></svg></g><defs></defs></svg><rect width="395.52" height="74.50140418325174" fill="none" stroke="none" visibility="hidden"></rect></g></svg></g></svg>